<?xml version="1.0" standalone="no"?>
<!DOCTYPE svg PUBLIC "-//W3C//DTD SVG 20010904//EN"
 "http://www.w3.org/TR/2001/REC-SVG-20010904/DTD/svg10.dtd">
<svg version="1.0" xmlns="http://www.w3.org/2000/svg"
 width="500.000000pt" height="500.000000pt" viewBox="0 0 500.000000 500.000000"
 preserveAspectRatio="xMidYMid meet">

<g transform="translate(0.000000,500.000000) scale(0.100000,-0.100000)"
fill="#000000" stroke="none">
<path d="M2392 4439 c-106 -20 -203 -107 -237 -210 -23 -69 -17 -178 14 -237
36 -70 90 -123 160 -155 57 -25 74 -28 135 -25 199 11 333 173 304 366 -20
129 -106 224 -235 257 -63 16 -77 17 -141 4z"/>
<path d="M1160 4116 c0 -2 57 -39 128 -84 143 -90 351 -243 522 -382 135 -111
422 -379 418 -390 -2 -4 -41 -39 -88 -76 -115 -93 -348 -321 -427 -419 -385
-477 -423 -919 -116 -1335 56 -75 251 -276 259 -267 3 3 -3 42 -13 88 -28 129
-25 426 6 579 56 282 182 577 368 860 72 110 217 305 233 315 10 6 154 -184
243 -320 321 -491 447 -991 366 -1446 -11 -63 -13 -67 -26 -49 -17 24 -36 25
-57 4 -20 -19 -5 -54 22 -54 42 0 214 168 323 317 61 82 132 227 160 324 33
120 34 326 1 449 -61 224 -197 447 -409 670 -89 94 -274 263 -363 332 l-35 27
70 72 c244 248 631 553 943 744 34 21 62 39 62 41 0 8 -287 -123 -480 -220
-289 -145 -519 -278 -790 -459 -26 -16 -27 -16 -155 67 -301 194 -661 389
-990 536 -96 43 -175 77 -175 76z"/>
<path d="M1467 3466 c-129 -46 -208 -181 -178 -303 35 -141 145 -223 280 -210
73 6 128 35 178 91 46 52 63 101 63 177 0 171 -184 301 -343 245z"/>
<path d="M3290 3471 c-73 -23 -147 -88 -176 -156 -23 -55 -21 -150 3 -207 42
-92 125 -149 231 -156 55 -4 71 0 126 27 98 48 146 123 146 228 0 86 -16 130
-67 184 -68 73 -177 106 -263 80z"/>
<path d="M505 3230 c370 -245 630 -517 802 -837 l49 -93 33 85 c18 46 53 119
77 161 l43 76 -51 46 c-165 149 -405 311 -678 459 -78 42 -377 183 -388 183
-4 0 47 -36 113 -80z"/>
<path d="M4430 3271 c-398 -179 -723 -380 -998 -617 l-33 -29 50 -95 c43 -83
65 -131 95 -215 6 -16 15 -5 48 60 158 314 430 600 803 848 160 105 159 104
35 48z"/>
<path d="M980 2170 c-8 -5 -10 -10 -5 -10 6 0 17 5 25 10 8 5 11 10 5 10 -5 0
-17 -5 -25 -10z"/>
<path d="M4126 2116 c215 -104 360 -218 445 -349 246 -380 -147 -780 -967
-985 -745 -187 -1712 -166 -2404 53 -132 42 -261 94 -380 156 -641 331 -614
805 64 1131 105 50 60 38 -71 -19 -292 -128 -496 -289 -581 -461 -36 -74 -37
-79 -37 -187 0 -109 1 -113 39 -189 134 -272 547 -504 1137 -639 356 -82 692
-117 1130 -117 468 0 809 38 1189 132 547 134 950 368 1076 623 38 78 39 81
39 190 0 107 -1 112 -39 189 -88 181 -335 367 -659 495 -113 45 -107 38 19
-23z"/>
<path d="M2856 1187 c-28 -21 -12 -59 22 -55 41 5 42 67 1 68 -3 0 -13 -6 -23
-13z"/>
<path d="M1910 1171 c0 -7 10 -15 21 -18 21 -6 21 -10 15 -102 -12 -166 -16
-191 -37 -191 -17 0 -35 -17 -27 -25 2 -2 41 -7 86 -11 72 -6 82 -5 82 10 0
10 -8 16 -21 16 -20 0 -21 4 -16 61 3 33 8 63 12 67 3 4 18 0 33 -9 23 -12 29
-25 37 -78 12 -74 31 -93 89 -89 45 3 59 23 22 32 -20 5 -25 14 -31 57 -5 37
-15 59 -33 76 -14 12 -20 23 -14 23 6 0 24 12 41 26 52 43 39 113 -26 140 -47
20 -233 32 -233 15z m192 -43 c16 -12 22 -34 19 -70 -2 -28 -30 -48 -68 -48
-36 0 -36 0 -29 38 3 20 6 49 6 65 0 23 4 27 28 27 16 0 35 -6 44 -12z"/>
<path d="M2998 1083 c-28 -4 -40 -33 -14 -33 13 0 26 -60 26 -126 0 -54 -67
-92 -84 -48 -3 8 -9 58 -12 110 -7 90 -8 95 -28 91 -69 -16 -86 -18 -86 -8 0
6 -14 5 -38 -3 -24 -9 -44 -11 -53 -5 -8 5 -33 9 -56 9 -85 0 -132 -80 -83
-143 17 -22 18 -26 5 -37 -18 -15 -20 -61 -4 -77 8 -8 5 -17 -10 -32 -41 -41
-18 -79 54 -87 98 -12 185 31 185 91 0 56 -27 73 -130 77 -44 2 -55 7 -58 21
-3 14 2 18 20 17 53 -5 76 1 103 25 22 22 26 33 23 65 -3 36 -1 40 19 40 13 0
23 5 23 10 0 7 6 7 20 0 16 -9 20 -21 20 -63 1 -76 16 -139 36 -154 29 -21 79
-16 113 13 30 25 31 25 31 5 0 -23 14 -26 69 -15 30 6 45 34 17 34 -14 0 -18
20 -31 163 -7 73 -5 71 -77 60z m-328 -43 c37 -20 36 -104 -1 -115 -43 -14
-74 56 -45 100 19 28 20 29 46 15z m70 -269 c0 -47 -108 -72 -130 -30 -21 38
-6 49 65 49 58 0 65 -2 65 -19z"/>
<path d="M2308 1050 c-26 -14 -41 -32 -53 -64 -43 -111 44 -213 158 -186 110
25 139 162 52 239 -43 37 -99 41 -157 11z m113 -32 c15 -27 15 -138 0 -166
-17 -32 -50 -38 -75 -13 -17 18 -21 33 -20 84 0 85 15 117 53 117 21 0 34 -7
42 -22z"/>
</g>
</svg>
